<svg xmlns="http://www.w3.org/2000/svg" viewBox="0 0 800 450" role="img" aria-labelledby="title desc">
<title id="title">Netzwerk-Labor</title><desc id="desc">Client, Switch, Router und Server in einem Lernnetzwerk</desc>
<defs><linearGradient id="bg" x1="0" y1="0" x2="1" y2="1"><stop stop-color="#07111b"/><stop offset="1" stop-color="#0c1824"/></linearGradient><filter id="g"><feGaussianBlur stdDeviation="12"/></filter></defs>
<rect width="800" height="450" fill="url(#bg)"/><g stroke="#1f3b50" opacity=".38"><path d="M0 75h800M0 150h800M0 225h800M0 300h800M0 375h800M100 0v450M200 0v450M300 0v450M400 0v450M500 0v450M600 0v450M700 0v450"/></g>
<path d="M135 225H315M385 225h115M570 225h95" stroke="#7dd3fc" stroke-width="4" stroke-dasharray="10 10"/><circle cx="350" cy="225" r="54" fill="#102334" stroke="#7dd3fc" stroke-width="3"/><path d="M325 225h50M350 200v50" stroke="#7dd3fc" stroke-width="6" stroke-linecap="round"/>
<g fill="#0d1b27" stroke="#86efac" stroke-width="3"><rect x="65" y="165" width="140" height="92" rx="14"/><rect x="85" y="272" width="100" height="12" rx="6"/><rect x="500" y="170" width="110" height="110" rx="14"/><rect x="665" y="150" width="82" height="150" rx="12"/></g>
<g fill="#86efac"><circle cx="525" cy="250" r="5"/><circle cx="543" cy="250" r="5"/><circle cx="561" cy="250" r="5"/><circle cx="690" cy="180" r="5"/></g>
<g fill="#dbeafe" font-family="monospace" text-anchor="middle"><text x="135" y="210" font-size="22">CLIENT-01</text><text x="350" y="310" font-size="18">SWITCH</text><text x="555" y="315" font-size="18">ROUTER</text><text x="706" y="330" font-size="18">SERVER-01</text></g>
<g fill="#7dd3fc" font-family="monospace" font-size="16"><text x="52" y="55">192.168.10.0/24</text><text x="582" y="55">STATUS: CONNECTED</text></g>
</svg>