<svg xmlns="http://www.w3.org/2000/svg" viewBox="0 0 800 450" role="img" aria-labelledby="title desc">
<title id="title">Python und Arduino</title><desc id="desc">Python-Skript steuert ein Arduino-Board mit Sensor</desc>
<defs><linearGradient id="bg" x1="0" y1="0" x2="1" y2="1"><stop stop-color="#08111a"/><stop offset="1" stop-color="#14131f"/></linearGradient></defs><rect width="800" height="450" fill="url(#bg)"/>
<g transform="translate(55 90)"><rect width="245" height="260" rx="18" fill="#0b121a" stroke="#4b8bbe" stroke-opacity=".65"/><rect width="245" height="44" rx="18" fill="#17202b"/><circle cx="22" cy="22" r="6" fill="#4b8bbe"/><circle cx="40" cy="22" r="6" fill="#ffd43b"/><g font-family="monospace" font-size="16"><text x="22" y="88" fill="#ffd43b">def</text><text x="58" y="88" fill="#7dd3fc"> read_sensor</text><text x="22" y="125" fill="#aab6c3"> value = analog_in()</text><text x="22" y="162" fill="#ffd43b"> if</text><text x="52" y="162" fill="#aab6c3"> value &gt; 500:</text><text x="22" y="199" fill="#86efac">    led.on()</text></g></g>
<path d="M300 220h110" stroke="#ffd43b" stroke-width="4" stroke-dasharray="9 9"/><polygon points="410,220 390,208 390,232" fill="#ffd43b"/>
<g transform="translate(410 105)"><rect width="235" height="230" rx="28" fill="#123038" stroke="#86efac" stroke-width="3"/><circle cx="64" cy="74" r="32" fill="none" stroke="#7dd3fc" stroke-width="8"/><circle cx="171" cy="74" r="32" fill="none" stroke="#7dd3fc" stroke-width="8"/><path d="M96 74h43" stroke="#7dd3fc" stroke-width="8"/><g fill="#ffd43b"><circle cx="55" cy="154" r="6"/><circle cx="80" cy="154" r="6"/><circle cx="105" cy="154" r="6"/><circle cx="130" cy="154" r="6"/><circle cx="155" cy="154" r="6"/></g><text x="118" y="205" fill="#dbeafe" font-family="monospace" font-size="19" text-anchor="middle">ARDUINO</text></g>
<path d="M645 220h75" stroke="#7dd3fc" stroke-width="4"/><circle cx="742" cy="220" r="24" fill="#0f2733" stroke="#7dd3fc" stroke-width="3"/><path d="M742 202v36M724 220h36" stroke="#86efac" stroke-width="4"/>
<text x="55" y="50" fill="#7dd3fc" font-family="monospace" font-size="16">PYTHON → CONTROLLER → SENSOR</text>
</svg>