<svg xmlns="http://www.w3.org/2000/svg" viewBox="0 0 800 450" role="img" aria-labelledby="title desc">
<title id="title">SQL und HeidiSQL</title><desc id="desc">Datenbanktabellen und eine SQL-Abfrage</desc>
<defs><linearGradient id="bg" x1="0" y1="0" x2="1" y2="1"><stop stop-color="#081019"/><stop offset="1" stop-color="#111525"/></linearGradient></defs><rect width="800" height="450" fill="url(#bg)"/>
<g transform="translate(55 58)"><rect width="300" height="330" rx="18" fill="#0d1822" stroke="#7dd3fc" stroke-opacity=".5"/><text x="24" y="40" fill="#7dd3fc" font-family="monospace" font-size="18">users</text><path d="M0 58h300M0 112h300M0 166h300M0 220h300M0 274h300" stroke="#263849"/><path d="M82 58v272" stroke="#263849"/><g fill="#a5b4c3" font-family="monospace" font-size="15"><text x="20" y="92">id</text><text x="102" y="92">name</text><text x="20" y="146">01</text><text x="102" y="146">client-01</text><text x="20" y="200">02</text><text x="102" y="200">server-01</text></g></g>
<g transform="translate(395 85)"><rect width="350" height="280" rx="18" fill="#090e15" stroke="#ffd43b" stroke-opacity=".42"/><rect width="350" height="46" rx="18" fill="#151d28"/><circle cx="24" cy="23" r="5" fill="#7dd3fc"/><text x="44" y="29" fill="#b9c4d0" font-family="monospace" font-size="14">query.sql</text><g font-family="monospace" font-size="17"><text x="28" y="95" fill="#ffd43b">SELECT</text><text x="96" y="95" fill="#d9e2ec"> name</text><text x="28" y="132" fill="#ffd43b">FROM</text><text x="80" y="132" fill="#7dd3fc"> users</text><text x="28" y="169" fill="#ffd43b">WHERE</text><text x="91" y="169" fill="#d9e2ec"> id = 01;</text></g><path d="M28 200h294" stroke="#263849"/><text x="28" y="238" fill="#86efac" font-family="monospace" font-size="16">✓ 1 row returned</text></g>
<text x="55" y="35" fill="#7dd3fc" font-family="monospace" font-size="16">RELATIONAL DATA / SQL</text>
</svg>